<svg xmlns="http://www.w3.org/2000/svg" viewBox="0 0 288 75.91">
  <title>blt-logo-web</title>
  <g>
    <path d="M35.67,5.36,12.85,18.53V1.08H0V75.91H.34L35.67,55.52,71,75.91h.35V26ZM58.48,53.84,35.67,40.67,12.85,53.84V33.36L35.67,20.2,58.48,33.37Z" style="fill: #db3939"/>
    <path d="M125.39,20.46H113V1.08H100.14V75.91h25.25A26.2,26.2,0,0,0,151.6,49.7v-3A26.2,26.2,0,0,0,125.39,20.46Zm13.35,29.63a13.84,13.84,0,0,1-13.85,13.85H113V32.42h11.89a13.85,13.85,0,0,1,13.85,13.85Zm70.08-29.63V50.7a25.08,25.08,0,0,1-25.08,25.08h-1.68A25.08,25.08,0,0,1,157,50.7V20.46h12.85v31a12.37,12.37,0,0,0,12.38,12.37h1.39A12.37,12.37,0,0,0,196,51.45v-31Zm43.63,55.45H239.6V1.08h12.85Zm-22.31,0H217.28V20.46h12.86ZM231,7.28A7.28,7.28,0,1,1,223.71,0,7.28,7.28,0,0,1,231,7.28ZM273.4,26.52V56a8,8,0,0,0,8,8h1.88v12h-2.67a20,20,0,0,1-20-20V1.08H273.4V14.56H288v12Z" style="fill: #081533"/>
  </g>
</svg>
